{
  "accessors": [
    {
      "bufferView": 2,
      "componentType": 5126,
      "count": 11674,
      "max": [
        151.20254516601563,
        181.18963623046875,
        122.75704956054688
      ],
      "min": [
        -84.08818817138672,
        -213.53411865234375,
        -16.06763458251953
      ],
      "type": "VEC3"
    },
    {
      "bufferView": 2,
      "byteOffset": 140088,
      "componentType": 5126,
      "count": 11674,
      "max": [
        0.9999959468841553,
        1.0,
        0.9999021291732788
      ],
      "min": [
        -0.9999704957008362,
        -1.0,
        -1.0
      ],
      "type": "VEC3"
    },
    {
      "bufferView": 1,
      "componentType": 5126,
      "count": 11674,
      "max": [
        0.9847887754440308,
        0.9833279848098755
      ],
      "min": [
        0.015106439590454102,
        0.018413901329040527
      ],
      "type": "VEC2"
    },
    {
      "bufferView": 0,
      "componentType": 5125,
      "count": 43440,
      "type": "SCALAR"
    }
  ],
  "asset": {
    "extras": {
      "author": "laurarostr (https://sketchfab.com/laurarostr)",
      "license": "CC-BY-4.0 (http://creativecommons.org/licenses/by/4.0/)",
      "source": "https://sketchfab.com/3d-models/hello-kitty-feb7ce3048e0491eb92bde1dc369b211",
      "title": "Hello Kitty"
    },
    "generator": "Sketchfab-14.55.0",
    "version": "2.0"
  },
  "bufferViews": [
    {
      "buffer": 0,
      "byteLength": 173760,
      "name": "floatBufferViews",
      "target": 34963
    },
    {
      "buffer": 0,
      "byteLength": 93392,
      "byteOffset": 173760,
      "byteStride": 8,
      "name": "floatBufferViews",
      "target": 34962
    },
    {
      "buffer": 0,
      "byteLength": 280176,
      "byteOffset": 267152,
      "byteStride": 12,
      "name": "floatBufferViews",
      "target": 34962
    }
  ],
  "buffers": [
    {
      "byteLength": 547328,
      "uri": "scene.bin"
    }
  ],
  "images": [
    {
      "uri": "textures/02_-_Default_baseColor.png"
    }
  ],
  "materials": [
    {
      "doubleSided": true,
      "name": "02_-_Default",
      "pbrMetallicRoughness": {
        "baseColorTexture": {
          "index": 0
        },
        "metallicFactor": 0.0,
        "roughnessFactor": 0.0
      }
    }
  ],
  "meshes": [
    {
      "name": "hellokitty_02 - Default_0",
      "primitives": [
        {
          "attributes": {
            "NORMAL": 1,
            "POSITION": 0,
            "TEXCOORD_0": 2
          },
          "indices": 3,
          "material": 0,
          "mode": 4
        }
      ]
    }
  ],
  "nodes": [
    {
      "children": [
        1
      ],
      "matrix": [
        1.0,
        0.0,
        0.0,
        0.0,
        0.0,
        2.220446049250313e-16,
        -1.0,
        0.0,
        0.0,
        1.0,
        2.220446049250313e-16,
        0.0,
        0.0,
        0.0,
        0.0,
        1.0
      ],
      "name": "Sketchfab_model"
    },
    {
      "children": [
        2
      ],
      "matrix": [
        0.009999999776482582,
        0.0,
        0.0,
        0.0,
        0.0,
        0.0,
        0.009999999776482582,
        0.0,
        0.0,
        -0.009999999776482582,
        0.0,
        0.0,
        0.0,
        0.0,
        0.0,
        1.0
      ],
      "name": "e806e2c68d5942d0a0d52399ed6339fa.fbx"
    },
    {
      "children": [
        3
      ],
      "name": "RootNode"
    },
    {
      "children": [
        4
      ],
      "matrix": [
        0.010384973716457068,
        -0.28027102977262436,
        -0.37764844232632194,
        -0.0,
        -0.1582617361958292,
        0.013056356072104902,
        -0.014041795855043646,
        -0.0,
        -0.07864760159083219,
        -0.5314579090508543,
        0.3922576808806303,
        -0.0,
        257.67742919921875,
        97.61286926269531,
        160.5355224609375,
        1.0
      ],
      "name": "hellokitty"
    },
    {
      "mesh": 0,
      "name": "hellokitty_02 - Default_0"
    }
  ],
  "samplers": [
    {
      "magFilter": 9729,
      "minFilter": 9987,
      "wrapS": 10497,
      "wrapT": 10497
    }
  ],
  "scene": 0,
  "scenes": [
    {
      "name": "Sketchfab_Scene",
      "nodes": [
        0
      ]
    }
  ],
  "textures": [
    {
      "sampler": 0,
      "source": 0
    }
  ]
}
