{
  "accessors": [
    {
      "bufferView": 2,
      "componentType": 5126,
      "count": 200,
      "max": [
        0.14761699736118317,
        -0.4639970064163208,
        1.4398930072784424
      ],
      "min": [
        -0.43392398953437805,
        -0.5948799848556519,
        1.168699026107788
      ],
      "type": "VEC3"
    },
    {
      "bufferView": 2,
      "byteOffset": 2400,
      "componentType": 5126,
      "count": 200,
      "max": [
        0.9431676268577576,
        0.624495804309845,
        0.9245215654373169
      ],
      "min": [
        -0.9964789748191833,
        -0.997859537601471,
        -0.924664318561554
      ],
      "type": "VEC3"
    },
    {
      "bufferView": 1,
      "componentType": 5126,
      "count": 200,
      "max": [
        0.875,
        1.0
      ],
      "min": [
        0.125,
        0.0
      ],
      "type": "VEC2"
    },
    {
      "bufferView": 0,
      "componentType": 5125,
      "count": 696,
      "type": "SCALAR"
    },
    {
      "bufferView": 2,
      "byteOffset": 4800,
      "componentType": 5126,
      "count": 1407,
      "max": [
        0.6465550065040588,
        0.3338780105113983,
        2.232738971710205
      ],
      "min": [
        0.03182800114154816,
        -0.3219749927520752,
        1.7333450317382813
      ],
      "type": "VEC3"
    },
    {
      "bufferView": 2,
      "byteOffset": 21684,
      "componentType": 5126,
      "count": 1407,
      "max": [
        0.9977538585662842,
        0.9981335401535034,
        0.999436616897583
      ],
      "min": [
        -0.9779784083366394,
        -0.9940065145492554,
        -0.8876258134841919
      ],
      "type": "VEC3"
    },
    {
      "bufferView": 1,
      "byteOffset": 1600,
      "componentType": 5126,
      "count": 1407,
      "max": [
        1.0,
        1.0
      ],
      "min": [
        0.0,
        0.013496000319719315
      ],
      "type": "VEC2"
    },
    {
      "bufferView": 0,
      "byteOffset": 2784,
      "componentType": 5125,
      "count": 6798,
      "type": "SCALAR"
    },
    {
      "bufferView": 2,
      "byteOffset": 38568,
      "componentType": 5126,
      "count": 2832,
      "max": [
        1.0053960084915161,
        0.6141729950904846,
        2.0569350719451904
      ],
      "min": [
        -0.9995399713516235,
        -0.6223880052566528,
        0.0649230033159256
      ],
      "type": "VEC3"
    },
    {
      "bufferView": 2,
      "byteOffset": 72552,
      "componentType": 5126,
      "count": 2832,
      "max": [
        0.9991683959960938,
        0.9998737573623657,
        0.9998633861541748
      ],
      "min": [
        -0.9987778067588806,
        -0.999931812286377,
        -0.9999986886978149
      ],
      "type": "VEC3"
    },
    {
      "bufferView": 1,
      "byteOffset": 12856,
      "componentType": 5126,
      "count": 2832,
      "max": [
        0.875,
        1.0
      ],
      "min": [
        0.125,
        -0.004604999907314777
      ],
      "type": "VEC2"
    },
    {
      "bufferView": 0,
      "byteOffset": 29976,
      "componentType": 5125,
      "count": 12987,
      "type": "SCALAR"
    },
    {
      "bufferView": 2,
      "byteOffset": 106536,
      "componentType": 5126,
      "count": 714,
      "max": [
        0.6854490041732788,
        -0.36019599437713623,
        1.2222119569778442
      ],
      "min": [
        -0.5120519995689392,
        -0.6380569934844971,
        0.14879800379276276
      ],
      "type": "VEC3"
    },
    {
      "bufferView": 2,
      "byteOffset": 115104,
      "componentType": 5126,
      "count": 714,
      "max": [
        0.9964969158172607,
        0.9999849796295166,
        0.9995763897895813
      ],
      "min": [
        -0.9965300559997559,
        -0.08800347149372101,
        -0.9895707368850708
      ],
      "type": "VEC3"
    },
    {
      "bufferView": 1,
      "byteOffset": 35512,
      "componentType": 5126,
      "count": 714,
      "max": [
        1.0,
        1.0
      ],
      "min": [
        0.0,
        0.0
      ],
      "type": "VEC2"
    },
    {
      "bufferView": 0,
      "byteOffset": 81924,
      "componentType": 5125,
      "count": 2982,
      "type": "SCALAR"
    },
    {
      "bufferView": 2,
      "byteOffset": 123672,
      "componentType": 5126,
      "count": 2534,
      "max": [
        0.7542290091514587,
        0.370525985956192,
        2.210381031036377
      ],
      "min": [
        -0.2920989990234375,
        -0.6509590148925781,
        0.795304000377655
      ],
      "type": "VEC3"
    },
    {
      "bufferView": 2,
      "byteOffset": 154080,
      "componentType": 5126,
      "count": 2534,
      "max": [
        0.9950799942016602,
        0.9996958374977112,
        0.9976055026054382
      ],
      "min": [
        -0.9953585863113403,
        -0.9996923804283142,
        -0.9981719255447388
      ],
      "type": "VEC3"
    },
    {
      "bufferView": 1,
      "byteOffset": 41224,
      "componentType": 5126,
      "count": 2534,
      "max": [
        1.0,
        1.0
      ],
      "min": [
        0.0,
        0.0
      ],
      "type": "VEC2"
    },
    {
      "bufferView": 0,
      "byteOffset": 93852,
      "componentType": 5125,
      "count": 12300,
      "type": "SCALAR"
    },
    {
      "bufferView": 2,
      "byteOffset": 184488,
      "componentType": 5126,
      "count": 2479,
      "max": [
        0.6437789797782898,
        -0.09344899654388428,
        1.2621899843215942
      ],
      "min": [
        -0.7813010215759277,
        -0.6978830099105835,
        -0.06712199747562408
      ],
      "type": "VEC3"
    },
    {
      "bufferView": 2,
      "byteOffset": 214236,
      "componentType": 5126,
      "count": 2479,
      "max": [
        0.9999549388885498,
        0.9999270439147949,
        0.9995548129081726
      ],
      "min": [
        -0.9971526265144348,
        -0.999229907989502,
        -0.9999903440475464
      ],
      "type": "VEC3"
    },
    {
      "bufferView": 1,
      "byteOffset": 61496,
      "componentType": 5126,
      "count": 2479,
      "max": [
        0.875,
        1.0
      ],
      "min": [
        0.125,
        0.0
      ],
      "type": "VEC2"
    },
    {
      "bufferView": 0,
      "byteOffset": 143052,
      "componentType": 5125,
      "count": 12291,
      "type": "SCALAR"
    }
  ],
  "asset": {
    "extras": {
      "author": "SirSquiggles (https://sketchfab.com/sirsquiggles)",
      "license": "SKETCHFAB Standard (https://sketchfab.com/licenses)",
      "source": "https://sketchfab.com/3d-models/sanrio-tuxedo-sam-3d-model-2c715aaf07824106a0a70c4e48626d17",
      "title": "Sanrio Tuxedo Sam 3D Model"
    },
    "generator": "Sketchfab-15.55.0",
    "version": "2.0"
  },
  "bufferViews": [
    {
      "buffer": 0,
      "byteLength": 192216,
      "name": "floatBufferViews",
      "target": 34963
    },
    {
      "buffer": 0,
      "byteLength": 81328,
      "byteOffset": 192216,
      "byteStride": 8,
      "name": "floatBufferViews",
      "target": 34962
    },
    {
      "buffer": 0,
      "byteLength": 243984,
      "byteOffset": 273544,
      "byteStride": 12,
      "name": "floatBufferViews",
      "target": 34962
    }
  ],
  "buffers": [
    {
      "byteLength": 517528,
      "uri": "scene.bin"
    }
  ],
  "materials": [
    {
      "doubleSided": true,
      "name": "Black",
      "pbrMetallicRoughness": {
        "baseColorFactor": [
          0.0,
          0.0,
          0.0,
          1.0
        ],
        "metallicFactor": 0.0
      }
    },
    {
      "doubleSided": true,
      "name": "Sailor_Hat_White",
      "pbrMetallicRoughness": {
        "baseColorFactor": [
          0.598393,
          0.598393,
          0.598393,
          1.0
        ],
        "metallicFactor": 0.0
      }
    },
    {
      "doubleSided": true,
      "name": "Sam_Blue",
      "pbrMetallicRoughness": {
        "baseColorFactor": [
          0.152926,
          0.323143,
          0.64448,
          1.0
        ],
        "metallicFactor": 0.0
      }
    },
    {
      "doubleSided": true,
      "name": "White",
      "pbrMetallicRoughness": {
        "metallicFactor": 0.0
      }
    },
    {
      "doubleSided": true,
      "name": "pink",
      "pbrMetallicRoughness": {
        "baseColorFactor": [
          1.0,
          0.0,
          0.063189,
          1.0
        ],
        "metallicFactor": 0.0
      }
    },
    {
      "doubleSided": true,
      "name": "yellow",
      "pbrMetallicRoughness": {
        "baseColorFactor": [
          0.987216,
          1.0,
          0.0,
          1.0
        ],
        "metallicFactor": 0.0
      }
    }
  ],
  "meshes": [
    {
      "name": "Object_0",
      "primitives": [
        {
          "attributes": {
            "NORMAL": 1,
            "POSITION": 0,
            "TEXCOORD_0": 2
          },
          "indices": 3,
          "material": 0,
          "mode": 4
        }
      ]
    },
    {
      "name": "Object_1",
      "primitives": [
        {
          "attributes": {
            "NORMAL": 5,
            "POSITION": 4,
            "TEXCOORD_0": 6
          },
          "indices": 7,
          "material": 1,
          "mode": 4
        }
      ]
    },
    {
      "name": "Object_2",
      "primitives": [
        {
          "attributes": {
            "NORMAL": 9,
            "POSITION": 8,
            "TEXCOORD_0": 10
          },
          "indices": 11,
          "material": 2,
          "mode": 4
        }
      ]
    },
    {
      "name": "Object_3",
      "primitives": [
        {
          "attributes": {
            "NORMAL": 13,
            "POSITION": 12,
            "TEXCOORD_0": 14
          },
          "indices": 15,
          "material": 3,
          "mode": 4
        }
      ]
    },
    {
      "name": "Object_4",
      "primitives": [
        {
          "attributes": {
            "NORMAL": 17,
            "POSITION": 16,
            "TEXCOORD_0": 18
          },
          "indices": 19,
          "material": 4,
          "mode": 4
        }
      ]
    },
    {
      "name": "Object_5",
      "primitives": [
        {
          "attributes": {
            "NORMAL": 21,
            "POSITION": 20,
            "TEXCOORD_0": 22
          },
          "indices": 23,
          "material": 5,
          "mode": 4
        }
      ]
    }
  ],
  "nodes": [
    {
      "children": [
        1
      ],
      "matrix": [
        1.0,
        0.0,
        0.0,
        0.0,
        0.0,
        2.220446049250313e-16,
        -1.0,
        0.0,
        0.0,
        1.0,
        2.220446049250313e-16,
        0.0,
        0.0,
        0.0,
        0.0,
        1.0
      ],
      "name": "Sketchfab_model"
    },
    {
      "children": [
        2,
        3,
        4,
        5,
        6,
        7
      ],
      "name": "Tuxedo Sam Character.obj.cleaner.materialmerger.gles"
    },
    {
      "mesh": 0,
      "name": "Object_2"
    },
    {
      "mesh": 1,
      "name": "Object_3"
    },
    {
      "mesh": 2,
      "name": "Object_4"
    },
    {
      "mesh": 3,
      "name": "Object_5"
    },
    {
      "mesh": 4,
      "name": "Object_6"
    },
    {
      "mesh": 5,
      "name": "Object_7"
    }
  ],
  "scene": 0,
  "scenes": [
    {
      "name": "Sketchfab_Scene",
      "nodes": [
        0
      ]
    }
  ]
}
