{
  "accessors": [
    {
      "bufferView": 2,
      "componentType": 5126,
      "count": 2694,
      "max": [
        1.1640064716339111,
        0.6816743612289429,
        0.43627864122390747
      ],
      "min": [
        -1.1640064716339111,
        -0.6816743612289429,
        -0.45226380228996277
      ],
      "type": "VEC3"
    },
    {
      "bufferView": 2,
      "byteOffset": 32328,
      "componentType": 5126,
      "count": 2694,
      "max": [
        1.0,
        1.0,
        1.0
      ],
      "min": [
        -1.0,
        -1.0,
        -1.0
      ],
      "type": "VEC3"
    },
    {
      "bufferView": 1,
      "componentType": 5126,
      "count": 2694,
      "max": [
        0.996218204498291,
        0.9985542297363281
      ],
      "min": [
        0.0014779227785766125,
        0.0015069188084453344
      ],
      "type": "VEC2"
    },
    {
      "bufferView": 0,
      "componentType": 5125,
      "count": 10728,
      "type": "SCALAR"
    },
    {
      "bufferView": 2,
      "byteOffset": 64656,
      "componentType": 5126,
      "count": 1607,
      "max": [
        1.5689595937728882,
        0.34548914432525635,
        3.2116096019744873
      ],
      "min": [
        -1.482850432395935,
        -0.811869204044342,
        0.4214600920677185
      ],
      "type": "VEC3"
    },
    {
      "bufferView": 2,
      "byteOffset": 83940,
      "componentType": 5126,
      "count": 1607,
      "max": [
        0.9999896883964539,
        1.0,
        1.0
      ],
      "min": [
        -0.9999896883964539,
        -1.0,
        -1.0
      ],
      "type": "VEC3"
    },
    {
      "bufferView": 1,
      "byteOffset": 21552,
      "componentType": 5126,
      "count": 1607,
      "max": [
        0.9982893466949463,
        0.7298634052276611
      ],
      "min": [
        0.08417174220085144,
        0.0015063550090417266
      ],
      "type": "VEC2"
    },
    {
      "bufferView": 0,
      "byteOffset": 42912,
      "componentType": 5125,
      "count": 7116,
      "type": "SCALAR"
    },
    {
      "bufferView": 2,
      "byteOffset": 103224,
      "componentType": 5126,
      "count": 682,
      "max": [
        0.5113072991371155,
        -0.7738862633705139,
        2.5976600646972656
      ],
      "min": [
        -0.5157773494720459,
        -1.0646860599517822,
        2.1685619354248047
      ],
      "type": "VEC3"
    },
    {
      "bufferView": 2,
      "byteOffset": 111408,
      "componentType": 5126,
      "count": 682,
      "max": [
        0.9996111392974854,
        0.9959493279457092,
        0.9943833351135254
      ],
      "min": [
        -0.9993866086006165,
        -0.9987666010856628,
        -0.9940332770347595
      ],
      "type": "VEC3"
    },
    {
      "bufferView": 1,
      "byteOffset": 34408,
      "componentType": 5126,
      "count": 682,
      "max": [
        0.6911255717277527,
        0.5197393298149109
      ],
      "min": [
        0.001564953476190567,
        0.0015165125951170921
      ],
      "type": "VEC2"
    },
    {
      "bufferView": 0,
      "byteOffset": 71376,
      "componentType": 5125,
      "count": 2472,
      "type": "SCALAR"
    },
    {
      "bufferView": 2,
      "byteOffset": 119592,
      "componentType": 5126,
      "count": 690,
      "max": [
        0.9257940053939819,
        -0.08329549431800842,
        1.5654714107513428
      ],
      "min": [
        -0.5471926927566528,
        -1.1573843955993652,
        0.6234912276268005
      ],
      "type": "VEC3"
    },
    {
      "bufferView": 2,
      "byteOffset": 127872,
      "componentType": 5126,
      "count": 690,
      "max": [
        0.9997352361679077,
        0.9958494305610657,
        0.999992847442627
      ],
      "min": [
        -0.9998430013656616,
        -0.997430682182312,
        -0.9885451197624207
      ],
      "type": "VEC3"
    },
    {
      "bufferView": 1,
      "byteOffset": 39864,
      "componentType": 5126,
      "count": 690,
      "max": [
        0.7867734432220459,
        0.6125362515449524
      ],
      "min": [
        0.0015625148080289364,
        0.39028266072273254
      ],
      "type": "VEC2"
    },
    {
      "bufferView": 0,
      "byteOffset": 81264,
      "componentType": 5125,
      "count": 3576,
      "type": "SCALAR"
    },
    {
      "bufferView": 2,
      "byteOffset": 136152,
      "componentType": 5126,
      "count": 1608,
      "max": [
        1.089059829711914,
        0.07283475995063782,
        3.1817901134490967
      ],
      "min": [
        -1.0101642608642578,
        -1.0565863847732544,
        1.530512809753418
      ],
      "type": "VEC3"
    },
    {
      "bufferView": 2,
      "byteOffset": 155448,
      "componentType": 5126,
      "count": 1608,
      "max": [
        0.9998451471328735,
        1.0,
        1.0
      ],
      "min": [
        -0.9998690485954285,
        -0.9997666478157043,
        -0.9976202249526978
      ],
      "type": "VEC3"
    },
    {
      "bufferView": 1,
      "byteOffset": 45384,
      "componentType": 5126,
      "count": 1608,
      "max": [
        0.8638074398040771,
        0.890457808971405
      ],
      "min": [
        0.0015193988801911473,
        0.23727475106716156
      ],
      "type": "VEC2"
    },
    {
      "bufferView": 0,
      "byteOffset": 95568,
      "componentType": 5125,
      "count": 7536,
      "type": "SCALAR"
    },
    {
      "bufferView": 2,
      "byteOffset": 174744,
      "componentType": 5126,
      "count": 11728,
      "max": [
        0.6039841175079346,
        -0.06074410676956177,
        1.540101170539856
      ],
      "min": [
        -0.5981970429420471,
        -1.0158859491348267,
        0.6386673450469971
      ],
      "type": "VEC3"
    },
    {
      "bufferView": 2,
      "byteOffset": 315480,
      "componentType": 5126,
      "count": 11728,
      "max": [
        0.999183177947998,
        0.9999977946281433,
        0.9999771118164063
      ],
      "min": [
        -0.9999199509620667,
        -0.9999990463256836,
        -0.9995360374450684
      ],
      "type": "VEC3"
    },
    {
      "bufferView": 1,
      "byteOffset": 58248,
      "componentType": 5126,
      "count": 11728,
      "max": [
        0.5045384168624878,
        0.39727509021759033
      ],
      "min": [
        0.24278895556926727,
        0.0015089657390490174
      ],
      "type": "VEC2"
    },
    {
      "bufferView": 0,
      "byteOffset": 125712,
      "componentType": 5125,
      "count": 63072,
      "type": "SCALAR"
    },
    {
      "bufferView": 2,
      "byteOffset": 456216,
      "componentType": 5126,
      "count": 586,
      "max": [
        1.4800713062286377,
        -0.31395843625068665,
        2.0430965423583984
      ],
      "min": [
        0.6659568548202515,
        -0.8063969612121582,
        0.9340401887893677
      ],
      "type": "VEC3"
    },
    {
      "bufferView": 2,
      "byteOffset": 463248,
      "componentType": 5126,
      "count": 586,
      "max": [
        0.9969046711921692,
        1.0,
        0.9910315275192261
      ],
      "min": [
        -0.9927576780319214,
        -1.0,
        -0.997726559638977
      ],
      "type": "VEC3"
    },
    {
      "bufferView": 1,
      "byteOffset": 152072,
      "componentType": 5126,
      "count": 586,
      "max": [
        0.9962624907493591,
        0.871724009513855
      ],
      "min": [
        0.001506313681602478,
        0.0015054421965032816
      ],
      "type": "VEC2"
    },
    {
      "bufferView": 0,
      "byteOffset": 378000,
      "componentType": 5125,
      "count": 1512,
      "type": "SCALAR"
    },
    {
      "bufferView": 2,
      "byteOffset": 470280,
      "componentType": 5126,
      "count": 4196,
      "max": [
        0.6826967597007751,
        -0.03563743829727173,
        1.6044484376907349
      ],
      "min": [
        -0.6594732999801636,
        -0.9106196165084839,
        0.6552386283874512
      ],
      "type": "VEC3"
    },
    {
      "bufferView": 2,
      "byteOffset": 520632,
      "componentType": 5126,
      "count": 4196,
      "max": [
        0.9998127222061157,
        1.0,
        1.0
      ],
      "min": [
        -0.9996048212051392,
        -1.0,
        -1.0
      ],
      "type": "VEC3"
    },
    {
      "bufferView": 1,
      "byteOffset": 156760,
      "componentType": 5126,
      "count": 4196,
      "max": [
        0.99710613489151,
        0.836357831954956
      ],
      "min": [
        0.001510677975602448,
        0.0015105579514056444
      ],
      "type": "VEC2"
    },
    {
      "bufferView": 0,
      "byteOffset": 384048,
      "componentType": 5125,
      "count": 19344,
      "type": "SCALAR"
    }
  ],
  "asset": {
    "extras": {
      "author": "CainJuuu (https://sketchfab.com/potatocnoiz)",
      "license": "CC-BY-NC-4.0 (http://creativecommons.org/licenses/by-nc/4.0/)",
      "source": "https://sketchfab.com/3d-models/kuromitoy-a27bbb666ad34027bbe8399d0e33a86a",
      "title": "KuromiToy"
    },
    "generator": "Sketchfab-15.14.0",
    "version": "2.0"
  },
  "bufferViews": [
    {
      "buffer": 0,
      "byteLength": 461424,
      "name": "floatBufferViews",
      "target": 34963
    },
    {
      "buffer": 0,
      "byteLength": 190328,
      "byteOffset": 461424,
      "byteStride": 8,
      "name": "floatBufferViews",
      "target": 34962
    },
    {
      "buffer": 0,
      "byteLength": 570984,
      "byteOffset": 651752,
      "byteStride": 12,
      "name": "floatBufferViews",
      "target": 34962
    }
  ],
  "buffers": [
    {
      "byteLength": 1222736,
      "uri": "scene.bin"
    }
  ],
  "images": [
    {
      "uri": "textures/under_seat_Baked.001_emissive.png"
    },
    {
      "uri": "textures/seat_Baked.001_emissive.png"
    },
    {
      "uri": "textures/Box_Baked_emissive.png"
    },
    {
      "uri": "textures/body_Baked_emissive.png"
    },
    {
      "uri": "textures/head_Baked_emissive.png"
    },
    {
      "uri": "textures/red_coat_Baked_emissive.png"
    },
    {
      "uri": "textures/fairy_wand_Baked_emissive.png"
    },
    {
      "uri": "textures/black_coat_Baked_emissive.png"
    }
  ],
  "materials": [
    {
      "doubleSided": true,
      "emissiveFactor": [
        1.0,
        1.0,
        1.0
      ],
      "emissiveTexture": {
        "index": 0
      },
      "name": "under_seat_Baked.001"
    },
    {
      "doubleSided": true,
      "emissiveFactor": [
        1.0,
        1.0,
        1.0
      ],
      "emissiveTexture": {
        "index": 1
      },
      "name": "seat_Baked.001"
    },
    {
      "doubleSided": true,
      "emissiveFactor": [
        1.0,
        1.0,
        1.0
      ],
      "emissiveTexture": {
        "index": 2
      },
      "name": "Box_Baked"
    },
    {
      "doubleSided": true,
      "emissiveFactor": [
        1.0,
        1.0,
        1.0
      ],
      "emissiveTexture": {
        "index": 3
      },
      "name": "body_Baked"
    },
    {
      "doubleSided": true,
      "emissiveFactor": [
        1.0,
        1.0,
        1.0
      ],
      "emissiveTexture": {
        "index": 4
      },
      "name": "head_Baked"
    },
    {
      "doubleSided": true,
      "emissiveFactor": [
        1.0,
        1.0,
        1.0
      ],
      "emissiveTexture": {
        "index": 5
      },
      "name": "red_coat_Baked"
    },
    {
      "doubleSided": true,
      "emissiveFactor": [
        1.0,
        1.0,
        1.0
      ],
      "emissiveTexture": {
        "index": 6
      },
      "name": "fairy_wand_Baked"
    },
    {
      "doubleSided": true,
      "emissiveFactor": [
        1.0,
        1.0,
        1.0
      ],
      "emissiveTexture": {
        "index": 7
      },
      "name": "black_coat_Baked"
    }
  ],
  "meshes": [
    {
      "name": "Object_0",
      "primitives": [
        {
          "attributes": {
            "NORMAL": 1,
            "POSITION": 0,
            "TEXCOORD_0": 2
          },
          "indices": 3,
          "material": 0,
          "mode": 4
        }
      ]
    },
    {
      "name": "Object_1",
      "primitives": [
        {
          "attributes": {
            "NORMAL": 5,
            "POSITION": 4,
            "TEXCOORD_0": 6
          },
          "indices": 7,
          "material": 1,
          "mode": 4
        }
      ]
    },
    {
      "name": "Object_2",
      "primitives": [
        {
          "attributes": {
            "NORMAL": 9,
            "POSITION": 8,
            "TEXCOORD_0": 10
          },
          "indices": 11,
          "material": 2,
          "mode": 4
        }
      ]
    },
    {
      "name": "Object_3",
      "primitives": [
        {
          "attributes": {
            "NORMAL": 13,
            "POSITION": 12,
            "TEXCOORD_0": 14
          },
          "indices": 15,
          "material": 3,
          "mode": 4
        }
      ]
    },
    {
      "name": "Object_4",
      "primitives": [
        {
          "attributes": {
            "NORMAL": 17,
            "POSITION": 16,
            "TEXCOORD_0": 18
          },
          "indices": 19,
          "material": 4,
          "mode": 4
        }
      ]
    },
    {
      "name": "Object_5",
      "primitives": [
        {
          "attributes": {
            "NORMAL": 21,
            "POSITION": 20,
            "TEXCOORD_0": 22
          },
          "indices": 23,
          "material": 5,
          "mode": 4
        }
      ]
    },
    {
      "name": "Object_6",
      "primitives": [
        {
          "attributes": {
            "NORMAL": 25,
            "POSITION": 24,
            "TEXCOORD_0": 26
          },
          "indices": 27,
          "material": 6,
          "mode": 4
        }
      ]
    },
    {
      "name": "Object_7",
      "primitives": [
        {
          "attributes": {
            "NORMAL": 29,
            "POSITION": 28,
            "TEXCOORD_0": 30
          },
          "indices": 31,
          "material": 7,
          "mode": 4
        }
      ]
    }
  ],
  "nodes": [
    {
      "children": [
        1
      ],
      "matrix": [
        1.0,
        0.0,
        0.0,
        0.0,
        0.0,
        2.220446049250313e-16,
        -1.0,
        0.0,
        0.0,
        1.0,
        2.220446049250313e-16,
        0.0,
        0.0,
        0.0,
        0.0,
        1.0
      ],
      "name": "Sketchfab_model"
    },
    {
      "children": [
        2
      ],
      "name": "root"
    },
    {
      "children": [
        3,
        5,
        7,
        9,
        11,
        13,
        15,
        17
      ],
      "matrix": [
        1.0,
        0.0,
        0.0,
        0.0,
        0.0,
        2.220446049250313e-16,
        1.0,
        0.0,
        0.0,
        -1.0,
        2.220446049250313e-16,
        0.0,
        0.0,
        0.0,
        0.0,
        1.0
      ],
      "name": "GLTF_SceneRootNode"
    },
    {
      "children": [
        4
      ],
      "matrix": [
        1.0,
        0.0,
        -0.0,
        0.0,
        -0.0,
        -2.528810847390872e-07,
        -0.999999999999968,
        0.0,
        0.0,
        0.999999999999968,
        -2.528810847390872e-07,
        0.0,
        0.0,
        0.46401873230934143,
        0.0,
        1.0
      ],
      "name": "under_seat_Baked_0"
    },
    {
      "mesh": 0,
      "name": "Object_4"
    },
    {
      "children": [
        6
      ],
      "matrix": [
        1.0,
        0.0,
        -0.0,
        0.0,
        -0.0,
        -2.528810847390872e-07,
        -0.999999999999968,
        0.0,
        0.0,
        0.999999999999968,
        -2.528810847390872e-07,
        0.0,
        0.0,
        0.46401873230934143,
        0.0,
        1.0
      ],
      "name": "seat_Baked_1"
    },
    {
      "mesh": 1,
      "name": "Object_6"
    },
    {
      "children": [
        8
      ],
      "matrix": [
        1.0,
        0.0,
        -0.0,
        0.0,
        -0.0,
        -2.528810847390872e-07,
        -0.999999999999968,
        0.0,
        0.0,
        0.999999999999968,
        -2.528810847390872e-07,
        0.0,
        0.0,
        0.46401873230934143,
        0.0,
        1.0
      ],
      "name": "Box_Baked_2"
    },
    {
      "mesh": 2,
      "name": "Object_8"
    },
    {
      "children": [
        10
      ],
      "matrix": [
        1.0,
        0.0,
        -0.0,
        0.0,
        -0.0,
        -2.528810847390872e-07,
        -0.999999999999968,
        0.0,
        0.0,
        0.999999999999968,
        -2.528810847390872e-07,
        0.0,
        0.0,
        0.46401873230934143,
        0.0,
        1.0
      ],
      "name": "body_Baked_3"
    },
    {
      "mesh": 3,
      "name": "Object_10"
    },
    {
      "children": [
        12
      ],
      "matrix": [
        1.0,
        0.0,
        -0.0,
        0.0,
        -0.0,
        -2.528810847390872e-07,
        -0.999999999999968,
        0.0,
        0.0,
        0.999999999999968,
        -2.528810847390872e-07,
        0.0,
        0.0,
        0.46401873230934143,
        0.0,
        1.0
      ],
      "name": "head_Baked_4"
    },
    {
      "mesh": 4,
      "name": "Object_12"
    },
    {
      "children": [
        14
      ],
      "matrix": [
        1.0,
        0.0,
        -0.0,
        0.0,
        -0.0,
        -2.528810847390872e-07,
        -0.999999999999968,
        0.0,
        0.0,
        0.999999999999968,
        -2.528810847390872e-07,
        0.0,
        0.0,
        0.46401873230934143,
        0.0,
        1.0
      ],
      "name": "red_coat_Baked_5"
    },
    {
      "mesh": 5,
      "name": "Object_14"
    },
    {
      "children": [
        16
      ],
      "matrix": [
        1.0,
        0.0,
        -0.0,
        0.0,
        -0.0,
        -2.528810847390872e-07,
        -0.999999999999968,
        0.0,
        0.0,
        0.999999999999968,
        -2.528810847390872e-07,
        0.0,
        0.0,
        0.46401873230934143,
        0.0,
        1.0
      ],
      "name": "fairy wand_Baked_6"
    },
    {
      "mesh": 6,
      "name": "Object_16"
    },
    {
      "children": [
        18
      ],
      "matrix": [
        1.0,
        0.0,
        -0.0,
        0.0,
        -0.0,
        -2.528810847390872e-07,
        -0.999999999999968,
        0.0,
        0.0,
        0.999999999999968,
        -2.528810847390872e-07,
        0.0,
        0.0,
        0.46401873230934143,
        0.0,
        1.0
      ],
      "name": "black_coat_Baked_7"
    },
    {
      "mesh": 7,
      "name": "Object_18"
    }
  ],
  "samplers": [
    {
      "magFilter": 9729,
      "minFilter": 9987,
      "wrapS": 10497,
      "wrapT": 10497
    }
  ],
  "scene": 0,
  "scenes": [
    {
      "name": "Sketchfab_Scene",
      "nodes": [
        0
      ]
    }
  ],
  "textures": [
    {
      "sampler": 0,
      "source": 0
    },
    {
      "sampler": 0,
      "source": 1
    },
    {
      "sampler": 0,
      "source": 2
    },
    {
      "sampler": 0,
      "source": 3
    },
    {
      "sampler": 0,
      "source": 4
    },
    {
      "sampler": 0,
      "source": 5
    },
    {
      "sampler": 0,
      "source": 6
    },
    {
      "sampler": 0,
      "source": 7
    }
  ]
}
